<?xml version="1.0" encoding="iso-8859-1"?>
<!DOCTYPE svg PUBLIC "-//W3C//DTD SVG 1.1//EN" "http://www.w3.org/Graphics/SVG/1.1/DTD/svg11.dtd">
<svg fill="#44624a" version="1.1" id="Capa_1" xmlns="http://www.w3.org/2000/svg" xmlns:xlink="http://www.w3.org/1999/xlink" 
	 width="50px" height="50px" viewBox="0 0 184.501 184.501"
	 xml:space="preserve">
<g>
	<g>
		<path d="M171.75,90.85c-3.215-11.512-12.403-19.887-23.334-19.887c-0.121,0-0.23,0.042-0.358,0.042
			c-1.76-21.878-17.385-39.074-36.614-39.074c-10.827,0-20.472,5.535-27.237,14.167c-4.271-4.116-9.669-6.692-15.637-6.692
			c-13.387,0-24.232,12.459-24.588,27.965c-2.351-1.035-4.868-1.675-7.532-1.675c-11.789,0-21.349,11.14-21.349,24.887
			C6.759,90.583,0,98.461,0,108.18c0,9.706,6.759,17.579,15.101,17.579c0.006,0,18.806,0,43.267,0l-8.099-8.099v-0.006
			l-11.049-11.01l4.427-4.433C56.617,89.243,73.874,82.1,92.256,82.1c18.384,0,35.641,7.143,48.598,20.112l4.427,4.421
			l-11.039,11.027l-8.087,8.099c24.454,0,43.245,0,43.245,0c8.343,0,15.102-7.886,15.102-17.579
			C184.507,99.399,178.972,92.166,171.75,90.85z"/>
		<g>
			<path d="M48.074,106.645l6.378,6.369c20.843-20.849,54.775-20.824,75.6,0.013l6.375-6.369
				C112.089,82.274,72.439,82.274,48.074,106.645z"/>
			<path d="M59.11,117.672l6.373,6.376c14.76-14.761,38.788-14.761,53.542,0l6.388-6.376
				C107.145,99.399,77.393,99.399,59.11,117.672z"/>
			<path d="M70.482,129.042l6.388,6.394c8.479-8.488,22.273-8.488,30.786,0l6.363-6.394
				C102.018,117.045,82.48,117.045,70.482,129.042z"/>
			<path d="M92.239,135.441c-4.72,0-8.556,3.824-8.556,8.58c0,4.7,3.827,8.549,8.556,8.549c4.737,0,8.567-3.849,8.567-8.549
				C100.818,139.265,96.976,135.441,92.239,135.441z"/>
		</g>
	</g>
</g>
</svg>